# xmcd
#
# Track frame offsets:
#	150
#	24640
#	48475
#	74468
#	94510
#	118623
#	141120
#	166475
#	194793
#	217805
#
# Disc length: 3237 seconds
#
# Revision: 1
# Processed by: cddbd v1.5.2PL0 Copyright (c) Steve Scherf et al.
# Submitted via: EZCDAudioConverter 8.0.2.1
#
DISCID=910ca30a
DTITLE=Various Artist - Rumba Rumba
DYEAR=1989
DGENRE=
TTITLE0=Tuấn Anh - Chuyện tình buồn
TTITLE1=Ngọc Lan - Xin thời gian qua mau
TTITLE2=Kiều Nga - Cô bé dễ thương
TTITLE3=Lưu Hồng - Lạnh trọn đêm mưa
TTITLE4=Kiều Nga - Hãy đến với em
TTITLE5=Minh Xuân - Chuyện phim buồn
TTITLE6=Duy Quang - Lá xanh mùa hè
TTITLE7=Thiên Trang - Ngày sau sẽ ra sao
TTITLE8=Kiều Nga - Vắng bóng người yêu
TTITLE9=Elvis Phương - Áo em thu vang
EXTD=
EXTT0=
EXTT1=
EXTT2=
EXTT3=
EXTT4=
EXTT5=
EXTT6=
EXTT7=
EXTT8=
EXTT9=
PLAYORDER=
